<svg width="600" height="580" viewBox="0 0 600 580" xmlns="http://www.w3.org/2000/svg">
  <!-- Background -->
  <rect width="600" height="580" fill="#f8f9fa" rx="8" ry="8" />
  
  <!-- Titles -->
  <text x="150" y="40" font-family="Arial, sans-serif" font-size="18" font-weight="bold" text-anchor="middle" fill="#333">Directory A</text>
  <text x="450" y="40" font-family="Arial, sans-serif" font-size="18" font-weight="bold" text-anchor="middle" fill="#333">Directory B</text>
  
  <!-- Directory Boxes -->
  <rect x="50" y="60" width="200" height="430" fill="white" stroke="#dee2e6" stroke-width="2" rx="4" ry="4" />
  <rect x="350" y="60" width="200" height="430" fill="white" stroke="#dee2e6" stroke-width="2" rx="4" ry="4" />
  
  <!-- Files in A -->
  <!-- Matching file at root -->
  <rect x="70" y="80" width="160" height="30" fill="#d4edda" stroke="#28a745" rx="2" ry="2" />
  <text x="150" y="100" font-family="Arial, sans-serif" font-size="14" text-anchor="middle" fill="#155724">readme.md</text>
  
  <!-- Common Subdirectory "src" -->
  <rect x="60" y="125" width="180" height="110" fill="#f1f3f5" stroke="#adb5bd" stroke-dasharray="4" rx="4" ry="4" />
  <text x="80" y="145" font-family="Arial, sans-serif" font-size="12" font-weight="bold" fill="#495057">📂 src/</text>
    <!-- Modified file in src -->
    <rect x="85" y="160" width="145" height="30" fill="#fff3cd" stroke="#ffc107" rx="2" ry="2" />
    <text x="157" y="180" font-family="Arial, sans-serif" font-size="14" text-anchor="middle" fill="#856404">main.rs *</text>
    <!-- Matching file in src -->
    <rect x="85" y="200" width="145" height="30" fill="#d4edda" stroke="#28a745" rx="2" ry="2" />
    <text x="157" y="220" font-family="Arial, sans-serif" font-size="14" text-anchor="middle" fill="#155724">mod.rs</text>

  <!-- Orphan Folder in A (docs/) -->
  <rect x="60" y="250" width="180" height="70" fill="#f8d7da" stroke="#dc3545" stroke-dasharray="4" rx="4" ry="4" />
  <text x="80" y="270" font-family="Arial, sans-serif" font-size="12" font-weight="bold" fill="#721c24">📂 docs/ *</text>
    <!-- File in orphan folder -->
    <rect x="85" y="280" width="145" height="30" fill="#f8d7da" stroke="#dc3545" rx="2" ry="2" opacity="0.6" />
    <text x="157" y="300" font-family="Arial, sans-serif" font-size="14" text-anchor="middle" fill="#721c24">guide.pdf *</text>

  <!-- Unique file at root A -->
  <rect x="70" y="340" width="160" height="30" fill="#f8d7da" stroke="#dc3545" rx="2" ry="2" />
  <text x="150" y="360" font-family="Arial, sans-serif" font-size="14" text-anchor="middle" fill="#721c24">old_script.sh *</text>

  
  <!-- Files in B -->
  <!-- Matching file at root -->
  <rect x="370" y="80" width="160" height="30" fill="#d4edda" stroke="#28a745" rx="2" ry="2" />
  <text x="450" y="100" font-family="Arial, sans-serif" font-size="14" text-anchor="middle" fill="#155724">readme.md</text>
  
  <!-- Common Subdirectory "src" -->
  <rect x="360" y="125" width="180" height="110" fill="#f1f3f5" stroke="#adb5bd" stroke-dasharray="4" rx="4" ry="4" />
  <text x="380" y="145" font-family="Arial, sans-serif" font-size="12" font-weight="bold" fill="#495057">📂 src/</text>
    <!-- Modified file in src -->
    <rect x="385" y="160" width="145" height="30" fill="#fff3cd" stroke="#ffc107" rx="2" ry="2" />
    <text x="457" y="180" font-family="Arial, sans-serif" font-size="14" text-anchor="middle" fill="#856404">main.rs *</text>
    <!-- Matching file in src -->
    <rect x="385" y="200" width="145" height="30" fill="#d4edda" stroke="#28a745" rx="2" ry="2" />
    <text x="457" y="220" font-family="Arial, sans-serif" font-size="14" text-anchor="middle" fill="#155724">mod.rs</text>
  
  <!-- Orphan Folder in B (tests/) -->
  <rect x="360" y="250" width="180" height="70" fill="#cce5ff" stroke="#007bff" stroke-dasharray="4" rx="4" ry="4" />
  <text x="380" y="270" font-family="Arial, sans-serif" font-size="12" font-weight="bold" fill="#004085">📂 tests/ *</text>
    <!-- File in orphan folder -->
    <rect x="385" y="280" width="145" height="30" fill="#cce5ff" stroke="#007bff" rx="2" ry="2" opacity="0.6" />
    <text x="457" y="300" font-family="Arial, sans-serif" font-size="14" text-anchor="middle" fill="#004085">integration.rs *</text>

  <!-- Unique file at root B -->
  <rect x="370" y="340" width="160" height="30" fill="#cce5ff" stroke="#007bff" rx="2" ry="2" />
  <text x="450" y="360" font-family="Arial, sans-serif" font-size="14" text-anchor="middle" fill="#004085">new_test.rs *</text>


  <!-- Connection Lines -->
  <!-- Root Match -->
  <line x1="230" y1="95" x2="370" y2="95" stroke="#28a745" stroke-width="2" stroke-dasharray="4" />
  
  <!-- Src Folder Match -->
  <line x1="240" y1="140" x2="360" y2="140" stroke="#adb5bd" stroke-width="2" stroke-dasharray="2" />
  
  <!-- Modified in src -->
  <line x1="230" y1="175" x2="385" y2="175" stroke="#ffc107" stroke-width="2" stroke-dasharray="4" />
  
  <!-- Match in src -->
  <line x1="230" y1="215" x2="385" y2="215" stroke="#28a745" stroke-width="2" stroke-dasharray="4" />
  
  <!-- Legend -->
  <g transform="translate(50, 510)">
    <!-- First Row -->
    <rect x="0" y="0" width="15" height="15" fill="#d4edda" stroke="#28a745" />
    <text x="20" y="12" font-family="Arial, sans-serif" font-size="12" fill="#333">Identical</text>
    
    <rect x="100" y="0" width="15" height="15" fill="#fff3cd" stroke="#ffc107" />
    <text x="120" y="12" font-family="Arial, sans-serif" font-size="12" fill="#333">Modified (*)</text>
    
    <rect x="200" y="0" width="15" height="15" fill="#f1f3f5" stroke="#adb5bd" stroke-dasharray="2" />
    <text x="220" y="12" font-family="Arial, sans-serif" font-size="12" fill="#333">Shared Folder</text>

    <!-- Second Row -->
    <rect x="0" y="30" width="15" height="15" fill="#f8d7da" stroke="#dc3545" />
    <text x="20" y="42" font-family="Arial, sans-serif" font-size="12" fill="#333">Only in A (*)</text>
    
    <rect x="100" y="30" width="15" height="15" fill="#cce5ff" stroke="#007bff" />
    <text x="120" y="42" font-family="Arial, sans-serif" font-size="12" fill="#333">Only in B (*)</text>
    
    <rect x="200" y="30" width="15" height="15" fill="none" stroke="#666" stroke-dasharray="3" />
    <text x="220" y="42" font-family="Arial, sans-serif" font-size="12" fill="#333">Orphan Folder (*)</text>
  </g>
</svg>
